# xmcd CD database file
#
# Track frame offsets:
#	150
#	17850
#	31875
#	47895
#	62820
#	78120
#	99795
#	115695
#	133920
#	159958
#	180134
#	203984
#	220784
#
# Disc length: 3299 seconds
#
# Revision: 2
# Processed by: cddbd v1.5PL3 Copyright (c) Steve Scherf et al.
# Submitted via: CDex 1.51
#
DISCID=9f0ce10d
DTITLE=Balkan Fanatik - Balkan Fanatik
DYEAR=2003
DGENRE=New Age
TTITLE0=Ghost
TTITLE1=Csináld, csináld, jól csináld
TTITLE2=Elment az én rózsám
TTITLE3=Got No Father
TTITLE4=Hõsi ének
TTITLE5=Sír a szemem
TTITLE6=Fuckmen
TTITLE7=Sucking the Big Light
TTITLE8=Varázsének
TTITLE9=Uptown
TTITLE10=Neked adom
TTITLE11=Kerek a szõlõ
TTITLE12=Sámánének
EXTD=YEAR: 2003
EXTT0=
EXTT1=
EXTT2=
EXTT3=
EXTT4=
EXTT5=
EXTT6=
EXTT7=
EXTT8=
EXTT9=
EXTT10=
EXTT11=
EXTT12=
PLAYORDER=
